<svg xmlns="http://www.w3.org/2000/svg" width="26" height="26" viewBox="0 0 26 26">
    <path fill="none" fill-rule="evenodd" stroke="#000" d="M19.4 8.035a1.44 1.44 0 1 1 .003-2.88 1.44 1.44 0 0 1-.003 2.88M13 19.163A6.16 6.16 0 0 1 6.843 13 6.16 6.16 0 0 1 13 6.839 6.16 6.16 0 0 1 19.157 13 6.16 6.16 0 0 1 13 19.163m11.918-11.11c-.059-1.278-.263-2.15-.557-2.914a5.905 5.905 0 0 0-1.382-2.126 5.867 5.867 0 0 0-2.124-1.381c-.763-.298-1.635-.501-2.91-.56C16.667 1.014 16.257 1 13 1c-3.259 0-3.665.013-4.943.072-1.279.058-2.148.263-2.91.558-.8.3-1.526.774-2.125 1.384A5.908 5.908 0 0 0 1.64 5.14c-.296.763-.499 1.636-.557 2.913C1.025 9.33 1.01 9.74 1.01 13c0 3.262.014 3.668.072 4.948.058 1.28.262 2.15.557 2.912a6.132 6.132 0 0 0 3.507 3.51c.762.297 1.633.5 2.91.558C9.333 24.985 9.743 25 13 25c3.256 0 3.664-.014 4.943-.072 1.278-.059 2.148-.262 2.911-.558a6.134 6.134 0 0 0 3.506-3.51c.296-.762.5-1.636.557-2.912.058-1.277.072-1.688.072-4.947 0-3.26-.013-3.668-.07-4.947"/>
</svg>
